<svg width="36" height="37" viewBox="0 0 36 37" fill="none" xmlns="http://www.w3.org/2000/svg">
<rect y="0.0893555" width="36" height="36" rx="8" fill="#7000FF"/>
<path fill-rule="evenodd" clip-rule="evenodd" d="M9 18.0894C9 14.4942 9 12.6966 9.85669 11.4019C10.2392 10.8237 10.7344 10.3286 11.3126 9.94605C12.6073 9.08936 14.4049 9.08936 18 9.08936C21.5951 9.08936 23.3927 9.08936 24.6874 9.94605C25.2656 10.3286 25.7608 10.8237 26.1433 11.4019C27 12.6966 27 14.4942 27 18.0894C27 21.6845 27 23.4821 26.1433 24.7768C25.7608 25.355 25.2656 25.8501 24.6874 26.2327C23.3927 27.0894 21.5951 27.0894 18 27.0894C14.4049 27.0894 12.6073 27.0894 11.3126 26.2327C10.7344 25.8501 10.2392 25.355 9.85669 24.7768C9 23.4821 9 21.6845 9 18.0894ZM22.6593 18.0896C22.6593 20.6629 20.5732 22.749 17.9998 22.749C15.4265 22.749 13.3404 20.6629 13.3404 18.0896C13.3404 15.5163 15.4265 13.4302 17.9998 13.4302C20.5732 13.4302 22.6593 15.5163 22.6593 18.0896ZM17.9998 21.1726C19.7025 21.1726 21.0828 19.7923 21.0828 18.0896C21.0828 16.3869 19.7025 15.0066 17.9998 15.0066C16.2971 15.0066 14.9168 16.3869 14.9168 18.0896C14.9168 19.7923 16.2971 21.1726 17.9998 21.1726ZM22.8433 14.2909C23.4479 14.2909 23.9381 13.8007 23.9381 13.1961C23.9381 12.5914 23.4479 12.1013 22.8433 12.1013C22.2386 12.1013 21.7485 12.5914 21.7485 13.1961C21.7485 13.8007 22.2386 14.2909 22.8433 14.2909Z" fill="white"/>
</svg>
